<svg width="66" height="66" viewBox="0 0 66 66" fill="none" xmlns="http://www.w3.org/2000/svg">
  <path d="M66 0H0V66H66V0Z" fill="#FFCC00" />
  <path d="M33 4.64976V0H4.64976H0V4.64976V33H4.64976V4.64976H33Z" fill="#003399" />
  <path d="M61.3526 33V61.3526H33V66H61.3526H66V61.3526V33H61.3526Z" fill="#003399" />
  <path d="M19.3115 23.6189C19.386 23.6189 19.4489 23.6445 19.4978 23.698L20.0286 24.2638C19.7679 24.5968 19.4419 24.8483 19.0554 25.0206C18.6665 25.1929 18.2055 25.279 17.6723 25.279C17.188 25.279 16.7526 25.1975 16.3661 25.0322C15.9796 24.8669 15.6513 24.6387 15.3812 24.343C15.1111 24.0496 14.9016 23.7004 14.7572 23.2952C14.6105 22.8901 14.5383 22.45 14.5383 21.9704C14.5383 21.6491 14.5733 21.3441 14.6431 21.0553C14.713 20.7666 14.8154 20.4989 14.9481 20.2544C15.0809 20.0099 15.2438 19.791 15.4324 19.5954C15.621 19.3999 15.8352 19.2322 16.0727 19.0948C16.3102 18.9575 16.5687 18.8504 16.8504 18.7782C17.1322 18.706 17.4302 18.6688 17.7492 18.6688C17.9867 18.6688 18.2125 18.6897 18.4244 18.7316C18.6363 18.7735 18.8342 18.8317 19.0205 18.9062C19.2044 18.9808 19.3744 19.0716 19.5304 19.1763C19.6864 19.2811 19.8261 19.3975 19.9518 19.5209L19.5024 20.1356C19.4768 20.1752 19.4419 20.2078 19.4 20.2381C19.3581 20.2683 19.3022 20.2823 19.23 20.2823C19.1578 20.2823 19.0857 20.2567 19.0135 20.2055C18.9413 20.1543 18.8505 20.0984 18.7457 20.0355C18.6409 19.9726 18.5082 19.9168 18.3499 19.8655C18.1916 19.8143 17.989 19.7887 17.7468 19.7887C17.4767 19.7887 17.2276 19.8376 17.0018 19.9354C16.7759 20.0332 16.5827 20.1752 16.4197 20.3615C16.2567 20.5477 16.1333 20.7759 16.0425 21.046C15.954 21.3161 15.9098 21.6235 15.9098 21.9681C15.9098 22.3127 15.9587 22.6247 16.0541 22.8971C16.1496 23.1695 16.2823 23.3977 16.4499 23.5863C16.6176 23.7725 16.8132 23.9146 17.039 24.0124C17.2625 24.1102 17.5024 24.1567 17.7585 24.1567C17.9098 24.1567 18.0472 24.1497 18.1706 24.1334C18.294 24.1195 18.4081 24.0939 18.5129 24.0566C18.6177 24.0217 18.7178 23.9751 18.8109 23.9192C18.904 23.8634 18.9995 23.7912 19.095 23.705C19.1276 23.6794 19.1625 23.6561 19.1974 23.6375C19.2323 23.6189 19.2719 23.6119 19.3138 23.6119L19.3115 23.6189Z" fill="#003399" />
  <path d="M22.3943 25.2116H21.0485V18.7434H22.3943V25.2116Z" fill="#003399" />
  <path d="M28.5947 19.8214H26.7041V25.2116H25.3629V19.8214H23.4723V18.7434H28.5947V19.8214Z" fill="#003399" />
  <path d="M31.0162 25.2116H29.6704V18.7434H31.0162V25.2116Z" fill="#003399" />
  <path d="M37.1538 19.2323C37.1538 19.2999 37.1422 19.3697 37.1212 19.4396C37.1003 19.5094 37.0677 19.5746 37.0258 19.6328L33.8336 24.1615H37.0653V25.2093H32.1176V24.6877C32.1176 24.6249 32.1269 24.5643 32.1478 24.5038C32.1688 24.4432 32.199 24.3874 32.2363 24.3361L35.4378 19.7888H32.3434V18.7411H37.1538V19.2323Z" fill="#003399" />
  <path d="M39.6638 19.7912V21.4536H41.8222V22.4664H39.6638V24.1638H42.4369V25.2116H38.318V18.7434H42.4369V19.7912H39.6638Z" fill="#003399" />
  <path d="M49.2427 18.7434V25.2116H48.5512C48.4464 25.2116 48.3603 25.1953 48.2881 25.1604C48.2159 25.1254 48.1461 25.0672 48.0785 24.9834L44.8561 20.8832C44.8654 20.9879 44.8724 21.0904 44.877 21.1905C44.8817 21.2906 44.884 21.3861 44.884 21.4722V25.2116H43.7035V18.7434H44.4067C44.4626 18.7434 44.5115 18.7434 44.551 18.7504C44.5906 18.755 44.6279 18.7643 44.6605 18.7806C44.6931 18.7969 44.7234 18.8179 44.7536 18.8458C44.7839 18.8738 44.8165 18.9087 44.8514 18.9529L48.0972 23.0718C48.0855 22.9601 48.0762 22.8506 48.0692 22.7435C48.0622 22.6364 48.0599 22.5386 48.0599 22.4432V18.7434H49.2404H49.2427Z" fill="#003399" />
  <path d="M54.3674 19.9821C54.3255 20.0496 54.2836 20.1008 54.2417 20.1311C54.1975 20.1614 54.1439 20.1777 54.0741 20.1777C54.0042 20.1777 53.939 20.1544 53.8622 20.1078C53.7854 20.0612 53.6969 20.0123 53.5968 19.9588C53.4966 19.9052 53.3802 19.8563 53.2498 19.8098C53.1194 19.7632 52.9658 19.7399 52.7911 19.7399C52.4815 19.7399 52.251 19.8098 52.095 19.9472C51.9413 20.0845 51.8621 20.2661 51.8621 20.4897C51.8621 20.6317 51.904 20.7504 51.9902 20.8436C52.074 20.9367 52.1858 21.0182 52.3255 21.0857C52.4628 21.1532 52.6212 21.2161 52.7958 21.2697C52.9704 21.3232 53.152 21.3814 53.336 21.4466C53.5199 21.5095 53.6992 21.5863 53.8762 21.6725C54.0508 21.7586 54.2091 21.8681 54.3465 21.9984C54.4839 22.1288 54.5956 22.2895 54.6818 22.4781C54.7656 22.6667 54.8075 22.8972 54.8075 23.1673C54.8075 23.4607 54.7563 23.7377 54.6538 23.9939C54.5514 24.25 54.4024 24.4758 54.2114 24.6668C54.0182 24.8577 53.7807 25.009 53.4966 25.1185C53.2126 25.2279 52.8913 25.2838 52.5327 25.2838C52.3278 25.2838 52.1229 25.2628 51.9203 25.2209C51.7178 25.179 51.5199 25.1208 51.3313 25.0463C51.1427 24.9718 50.9657 24.8833 50.7981 24.7785C50.6304 24.6737 50.4861 24.5597 50.3603 24.4316L50.7515 23.7983C50.7841 23.7517 50.8283 23.7121 50.8819 23.6795C50.9354 23.6493 50.9913 23.633 51.0518 23.633C51.131 23.633 51.2172 23.6632 51.3056 23.7214C51.3941 23.7797 51.4966 23.8472 51.613 23.917C51.7294 23.9892 51.8621 24.0544 52.0158 24.1126C52.1695 24.1731 52.3534 24.2011 52.5653 24.2011C52.8773 24.2011 53.1194 24.1289 53.2894 23.9869C53.4594 23.8448 53.5455 23.633 53.5455 23.3489C53.5455 23.1859 53.5036 23.0532 53.4175 22.9531C53.3337 22.853 53.2219 22.7668 53.0845 22.6993C52.9471 22.6318 52.7911 22.5712 52.6165 22.5223C52.4419 22.4734 52.2603 22.4199 52.0763 22.3593C51.8924 22.3011 51.7131 22.229 51.5361 22.1451C51.3592 22.0613 51.2055 21.9519 51.0681 21.8145C50.9308 21.6771 50.8213 21.5095 50.7352 21.3069C50.6514 21.1044 50.6071 20.8529 50.6071 20.5525C50.6071 20.3127 50.6537 20.0775 50.7492 19.8517C50.8446 19.6258 50.9843 19.4256 51.1683 19.251C51.3522 19.0763 51.5781 18.9343 51.8481 18.8272C52.1182 18.7201 52.4256 18.6665 52.7725 18.6665C53.1614 18.6665 53.5222 18.7271 53.8529 18.8482C54.1835 18.9692 54.4629 19.1346 54.6934 19.3488L54.3628 19.9774L54.3674 19.9821Z" fill="#003399" />
  <path d="M20.0636 35.9081H18.8552C18.6293 35.9081 18.4663 35.822 18.3639 35.6497L17.1345 33.6659C17.0833 33.5891 17.0274 33.5332 16.9668 33.4959C16.9063 33.461 16.8155 33.4424 16.6968 33.4424H16.2427V35.9081H14.9062V29.4399H16.9389C17.3906 29.4399 17.7771 29.4865 18.0984 29.5796C18.4197 29.6728 18.6829 29.8032 18.8878 29.9685C19.0926 30.1338 19.2417 30.334 19.3371 30.5645C19.4326 30.795 19.4792 31.0488 19.4792 31.3236C19.4792 31.5378 19.4489 31.7404 19.3883 31.9313C19.3278 32.1222 19.2393 32.2968 19.1229 32.4552C19.0065 32.6135 18.8645 32.7532 18.6945 32.8743C18.5245 32.9953 18.3313 33.0955 18.1147 33.1676C18.2009 33.2165 18.28 33.2724 18.3546 33.3399C18.4291 33.4075 18.4966 33.4866 18.5548 33.5774L20.0612 35.9035L20.0636 35.9081ZM16.9296 32.5041C17.1461 32.5041 17.3347 32.4761 17.4907 32.4226C17.6491 32.3667 17.7771 32.2922 17.8796 32.1944C17.9797 32.0989 18.0542 31.9848 18.1031 31.8544C18.152 31.7241 18.1753 31.582 18.1753 31.426C18.1753 31.121 18.0728 30.8812 17.8703 30.7135C17.6677 30.5436 17.3557 30.4598 16.9412 30.4598H16.245V32.5064H16.9319L16.9296 32.5041Z" fill="#003399" />
  <path d="M22.3104 35.9081H20.9646V29.4399H22.3104V35.9081Z" fill="#003399" />
  <path d="M27.079 32.6135H29.2979V35.2841C28.9673 35.524 28.6157 35.7009 28.2431 35.8127C27.8706 35.9244 27.4748 35.9803 27.0603 35.9803C26.5295 35.9803 26.0475 35.8988 25.6167 35.7335C25.186 35.5682 24.8181 35.34 24.5108 35.0443C24.2034 34.7486 23.9683 34.4017 23.8029 33.9965C23.6353 33.5914 23.5538 33.1513 23.5538 32.6717C23.5538 32.1921 23.633 31.7427 23.7913 31.3399C23.9496 30.9347 24.1778 30.5878 24.4712 30.2968C24.7646 30.0057 25.1208 29.7775 25.5376 29.6146C25.9544 29.4516 26.4224 29.3701 26.9393 29.3701C27.207 29.3701 27.4562 29.391 27.689 29.4353C27.9218 29.4772 28.1337 29.5377 28.3316 29.6146C28.5295 29.6914 28.7065 29.7799 28.8718 29.8846C29.0348 29.9894 29.1838 30.1035 29.3165 30.2269L28.9277 30.8253C28.8671 30.9208 28.7903 30.979 28.6948 30.9999C28.5994 31.0209 28.4969 30.9976 28.3828 30.9278C28.2757 30.8626 28.171 30.8043 28.0685 30.7508C27.9661 30.6996 27.8566 30.653 27.7402 30.6158C27.6238 30.5762 27.4981 30.5482 27.3607 30.5273C27.2233 30.5063 27.0673 30.497 26.888 30.497C26.5877 30.497 26.3153 30.5482 26.0731 30.653C25.8286 30.7578 25.6214 30.9045 25.4514 31.0931C25.2815 31.284 25.1487 31.5122 25.0579 31.7799C24.9648 32.0477 24.9206 32.3457 24.9206 32.6764C24.9206 33.0326 24.9718 33.3516 25.0719 33.6333C25.172 33.9151 25.3164 34.1502 25.5003 34.3435C25.6843 34.5367 25.9055 34.6834 26.1616 34.7859C26.4177 34.886 26.7041 34.9372 27.0207 34.9372C27.235 34.9372 27.4259 34.9163 27.5935 34.872C27.7612 34.8278 27.9265 34.7696 28.0871 34.6951V33.6077H27.356C27.2699 33.6077 27.2024 33.5844 27.1535 33.5379C27.1046 33.4913 27.079 33.4331 27.079 33.3609V32.6158V32.6135Z" fill="#003399" />
  <path d="M36.1992 29.4399V35.9081H34.8534V33.1234H32.0058V35.9081H30.66V29.4399H32.0058V32.1851H34.8534V29.4399H36.1992Z" fill="#003399" />
  <path d="M42.3996 30.5203H40.509V35.9105H39.1679V30.5203H37.2772V29.4423H42.3996V30.5203Z" fill="#003399" />
  <path d="M46.9726 30.6809C46.9306 30.7485 46.8887 30.7997 46.8468 30.83C46.8026 30.8602 46.749 30.8765 46.6792 30.8765C46.6093 30.8765 46.5441 30.8532 46.4673 30.8067C46.3905 30.7601 46.302 30.7112 46.2019 30.6577C46.1017 30.6041 45.9853 30.5552 45.8549 30.5086C45.7245 30.4621 45.5709 30.4388 45.3962 30.4388C45.0866 30.4388 44.8561 30.5086 44.7001 30.646C44.5464 30.7834 44.4672 30.965 44.4672 31.1885C44.4672 31.3306 44.5091 31.4493 44.5953 31.5424C44.6791 31.6356 44.7909 31.7171 44.9306 31.7846C45.0679 31.8521 45.2263 31.9126 45.4009 31.9662C45.5755 32.0198 45.7571 32.078 45.9411 32.1432C46.125 32.2084 46.3043 32.2829 46.4813 32.369C46.6582 32.4552 46.8142 32.5646 46.9516 32.695C47.089 32.8254 47.2007 32.986 47.2869 33.1746C47.3707 33.3632 47.4126 33.5937 47.4126 33.8638C47.4126 34.1572 47.3614 34.4343 47.2589 34.6904C47.1565 34.9465 47.0075 35.1724 46.8166 35.3633C46.6233 35.5542 46.3858 35.7056 46.1017 35.815C45.8177 35.9244 45.4964 35.9803 45.1378 35.9803C44.9329 35.9803 44.728 35.9594 44.5254 35.9174C44.3229 35.8755 44.125 35.8173 43.9364 35.7428C43.7478 35.6683 43.5708 35.5798 43.4032 35.4751C43.2378 35.3703 43.0912 35.2562 42.9654 35.1281L43.3566 34.4948C43.3892 34.4482 43.4334 34.4087 43.487 34.3761C43.5405 34.3458 43.5964 34.3295 43.6569 34.3295C43.7361 34.3295 43.8223 34.3598 43.9107 34.418C43.9992 34.4785 44.1017 34.5437 44.2181 34.6136C44.3345 34.6857 44.4672 34.7509 44.6209 34.8091C44.7746 34.8697 44.9585 34.8976 45.1704 34.8976C45.4824 34.8976 45.7245 34.8254 45.8945 34.6834C46.0645 34.5414 46.1506 34.3272 46.1506 34.0454C46.1506 33.8825 46.1087 33.7497 46.0226 33.6496C45.9388 33.5495 45.827 33.4633 45.6896 33.3958C45.5522 33.3283 45.3962 33.2678 45.2216 33.2189C45.047 33.17 44.8654 33.1164 44.6814 33.0559C44.4975 32.9977 44.3182 32.9255 44.1413 32.8417C43.9666 32.7578 43.8106 32.6484 43.6733 32.511C43.5359 32.3737 43.4264 32.206 43.3403 32.0035C43.2565 31.8009 43.2122 31.5494 43.2122 31.2491C43.2122 31.0092 43.2588 30.7741 43.3543 30.5482C43.4497 30.3224 43.5894 30.1221 43.7734 29.9475C43.9573 29.7729 44.1832 29.6308 44.4533 29.5237C44.7233 29.4166 45.0307 29.3631 45.3776 29.3631C45.7665 29.3631 46.1274 29.4236 46.458 29.5447C46.7886 29.6658 47.068 29.8334 47.2985 30.0453L46.9679 30.674L46.9726 30.6809Z" fill="#003399" />
  <path d="M17.0902 40.1388C17.5326 40.1388 17.9145 40.19 18.2381 40.2948C18.5594 40.3996 18.8249 40.5439 19.0344 40.7302C19.2417 40.9165 19.3953 41.1377 19.4955 41.3915C19.5956 41.6476 19.6445 41.9246 19.6445 42.225C19.6445 42.544 19.5932 42.835 19.4885 43.0981C19.3837 43.3636 19.2277 43.5894 19.0158 43.7804C18.8039 43.9713 18.5385 44.118 18.2172 44.2251C17.8959 44.3322 17.521 44.3834 17.0902 44.3834H16.2427V46.607H14.9062V40.1388H17.0902ZM17.0902 43.3566C17.5094 43.3566 17.8167 43.2565 18.01 43.0539C18.2032 42.8513 18.301 42.5766 18.301 42.225C18.301 42.0644 18.2754 41.9177 18.2265 41.7849C18.1776 41.6522 18.1031 41.5405 18.003 41.445C17.9028 41.3519 17.7771 41.2797 17.6258 41.2285C17.4744 41.1772 17.2951 41.1516 17.0856 41.1516H16.2381V43.3543H17.0856L17.0902 43.3566Z" fill="#003399" />
  <path d="M25.9217 46.607H24.7133C24.4875 46.607 24.3245 46.5209 24.222 46.3486L22.9927 44.3648C22.9414 44.2879 22.8855 44.2321 22.825 44.1948C22.7645 44.1599 22.6737 44.1413 22.5549 44.1413H22.1009V46.607H20.7644V40.1388H22.7971C23.2488 40.1388 23.6353 40.1854 23.9566 40.2785C24.2779 40.3716 24.541 40.502 24.7459 40.6673C24.9508 40.8326 25.0998 41.0329 25.1953 41.2634C25.2908 41.4939 25.3373 41.7477 25.3373 42.0224C25.3373 42.2366 25.3071 42.4392 25.2465 42.6301C25.186 42.8211 25.0975 42.9957 24.9811 43.154C24.8647 43.3124 24.7226 43.4521 24.5527 43.5731C24.3827 43.6942 24.1894 43.7943 23.9729 43.8665C24.059 43.9154 24.1382 43.9713 24.2127 44.0388C24.2872 44.1063 24.3548 44.1855 24.413 44.2763L25.9194 46.6023L25.9217 46.607ZM22.7878 43.2006C23.0043 43.2006 23.1929 43.1727 23.3489 43.1191C23.5072 43.0632 23.6353 42.9887 23.7377 42.8909C23.8379 42.7955 23.9124 42.6814 23.9613 42.551C24.0078 42.4206 24.0334 42.2786 24.0334 42.1226C24.0334 41.8175 23.931 41.5777 23.7284 41.4101C23.5259 41.2401 23.2139 41.1563 22.7994 41.1563H22.1032V43.2029H22.7901L22.7878 43.2006Z" fill="#003399" />
  <path d="M32.9674 43.3706C32.9674 43.8432 32.8882 44.281 32.7299 44.6861C32.5716 45.0912 32.3457 45.4405 32.057 45.7339C31.7683 46.0272 31.419 46.2601 31.0116 46.4277C30.6041 46.5954 30.1524 46.6792 29.6565 46.6792C29.1605 46.6792 28.7088 46.5954 28.3013 46.4277C27.8939 46.2601 27.5446 46.0296 27.2536 45.7339C26.9625 45.4382 26.7367 45.0912 26.5783 44.6861C26.42 44.281 26.3409 43.8432 26.3409 43.3706C26.3409 42.8979 26.42 42.4602 26.5783 42.0574C26.7367 41.6546 26.9625 41.3053 27.2536 41.0119C27.5446 40.7185 27.8939 40.4857 28.3013 40.3181C28.7088 40.1504 29.1605 40.0666 29.6565 40.0666C30.1524 40.0666 30.6041 40.1504 31.0116 40.3181C31.419 40.4857 31.7683 40.7185 32.057 41.0142C32.3457 41.31 32.5716 41.6592 32.7299 42.062C32.8882 42.4648 32.9674 42.9002 32.9674 43.3706ZM31.6006 43.3706C31.6006 43.0306 31.5564 42.7279 31.4679 42.4578C31.3794 42.1878 31.2491 41.9596 31.0814 41.771C30.9138 41.5824 30.7089 41.438 30.4714 41.3379C30.2316 41.2378 29.9615 41.1889 29.6588 41.1889C29.3561 41.1889 29.0837 41.2378 28.8438 41.3379C28.604 41.438 28.3991 41.5824 28.2315 41.771C28.0638 41.9596 27.9358 42.1878 27.845 42.4578C27.7542 42.7279 27.7123 43.0306 27.7123 43.3706C27.7123 43.7105 27.7565 44.0178 27.845 44.2856C27.9335 44.5557 28.0615 44.7816 28.2315 44.9702C28.3991 45.1564 28.604 45.3008 28.8438 45.4009C29.0837 45.501 29.3561 45.5499 29.6588 45.5499C29.9615 45.5499 30.2339 45.501 30.4714 45.4009C30.7112 45.3008 30.9138 45.1588 31.0814 44.9702C31.2491 44.7839 31.3771 44.5557 31.4679 44.2856C31.5564 44.0178 31.6006 43.7105 31.6006 43.3706Z" fill="#003399" />
  <path d="M36.5252 44.2879C36.5252 44.6512 36.4809 44.9771 36.3924 45.2705C36.304 45.5639 36.1689 45.813 35.9896 46.0249C35.8103 46.2345 35.5845 46.3951 35.3144 46.5092C35.0443 46.621 34.73 46.6792 34.3691 46.6792C34.2061 46.6792 34.0454 46.6699 33.8848 46.6512C33.7241 46.6326 33.5588 46.6023 33.3842 46.5604C33.3958 46.43 33.4075 46.2997 33.4191 46.1693C33.4308 46.0389 33.4424 45.9085 33.454 45.7781C33.4633 45.7059 33.4913 45.65 33.5379 45.6058C33.5844 45.5639 33.6543 45.5406 33.7428 45.5406C33.794 45.5406 33.8568 45.5499 33.936 45.5685C34.0152 45.5872 34.113 45.5942 34.2271 45.5942C34.3877 45.5942 34.5274 45.5709 34.6462 45.5266C34.7649 45.4824 34.865 45.4102 34.9442 45.3078C35.0234 45.2076 35.0839 45.0749 35.1258 44.9143C35.1654 44.7513 35.1863 44.5557 35.1863 44.3229V40.1411H36.5228V44.2903L36.5252 44.2879Z" fill="#003399" />
  <path d="M39.431 41.1866V42.849H41.5894V43.8619H39.431V45.5592H42.204V46.607H38.0852V40.1388H42.204V41.1866H39.431Z" fill="#003399" />
  <path d="M47.7409 45.0144C47.8154 45.0144 47.8783 45.0423 47.9272 45.0936L48.4581 45.6594C48.1973 45.9923 47.8713 46.2438 47.4848 46.4161C47.0983 46.5884 46.6349 46.6745 46.1017 46.6745C45.6174 46.6745 45.182 46.593 44.7955 46.4277C44.409 46.2624 44.0807 46.0342 43.8106 45.7385C43.5405 45.4451 43.331 45.0959 43.1866 44.6908C43.0423 44.2856 42.9678 43.8456 42.9678 43.3659C42.9678 43.0446 43.0027 42.7396 43.0725 42.4509C43.1424 42.1621 43.2448 41.8944 43.3776 41.6499C43.5103 41.4054 43.6733 41.1866 43.8619 40.991C44.0505 40.7954 44.2647 40.6277 44.5022 40.4904C44.7397 40.353 44.9981 40.2459 45.2798 40.1737C45.5616 40.1015 45.8596 40.0643 46.1786 40.0643C46.4161 40.0643 46.6419 40.0852 46.8538 40.1271C47.0657 40.1691 47.2636 40.2273 47.4499 40.3018C47.6338 40.3763 47.8038 40.4671 47.9598 40.5719C48.1158 40.6766 48.2555 40.7931 48.3812 40.9165L47.9318 41.5311C47.9039 41.5707 47.8713 41.6033 47.8294 41.6336C47.7875 41.6639 47.7316 41.6778 47.6594 41.6778C47.5872 41.6778 47.5151 41.6522 47.4429 41.601C47.3707 41.5498 47.2799 41.4939 47.1751 41.431C47.0703 41.3682 46.9376 41.3123 46.7793 41.2611C46.621 41.2098 46.4184 41.1842 46.1763 41.1842C45.9062 41.1842 45.657 41.2331 45.4312 41.3309C45.2053 41.4287 45.0121 41.5707 44.8491 41.757C44.6861 41.9433 44.5604 42.1715 44.4719 42.4415C44.3834 42.7116 44.3392 43.019 44.3392 43.3636C44.3392 43.7082 44.3881 44.0202 44.4835 44.2926C44.579 44.565 44.7117 44.7932 44.8794 44.9818C45.047 45.1681 45.2426 45.3101 45.4684 45.4079C45.692 45.5057 45.9318 45.5522 46.1879 45.5522C46.3392 45.5522 46.4766 45.5453 46.6 45.529C46.7234 45.515 46.8375 45.4894 46.9423 45.4521C47.0471 45.4149 47.1472 45.3706 47.2403 45.3148C47.3335 45.2589 47.4289 45.1867 47.5244 45.1005C47.557 45.0749 47.5919 45.0516 47.6268 45.033C47.6618 45.0144 47.7013 45.0051 47.7432 45.0051L47.7409 45.0144Z" fill="#003399" />
  <path d="M54.0578 41.2168H52.1671V46.607H50.826V41.2168H48.9354V40.1388H54.0578V41.2168Z" fill="#003399" />
</svg>