<svg width="28" height="29" viewBox="0 0 28 29" fill="none" xmlns="http://www.w3.org/2000/svg">
<path fill-rule="evenodd" clip-rule="evenodd" d="M14 -0.00390625C6.26801 -0.00390625 0 6.35798 0 14.2058C0 22.0535 6.26801 28.4154 14 28.4154C21.732 28.4154 28 22.0535 28 14.2058C28 6.35798 21.732 -0.00390625 14 -0.00390625ZM10.9219 6.67306C11.7184 6.63627 11.9729 6.62727 14.0007 6.62727H13.9984C16.0268 6.62727 16.2804 6.63627 17.0768 6.67306C17.8717 6.71 18.4146 6.83773 18.8906 7.02514C19.3822 7.21855 19.7975 7.47749 20.2129 7.89905C20.6282 8.32029 20.8833 8.74311 21.0747 9.24156C21.2582 9.72343 21.3842 10.2741 21.4216 11.0809C21.4573 11.8893 21.4667 12.1476 21.4667 14.2058C21.4667 16.264 21.4573 16.5217 21.4216 17.3301C21.3842 18.1366 21.2582 18.6875 21.0747 19.1695C20.8833 19.6678 20.6282 20.0906 20.2129 20.5118C19.798 20.9334 19.382 21.193 18.8911 21.3865C18.416 21.5739 17.8728 21.7017 17.0779 21.7386C16.2815 21.7754 16.0278 21.7844 13.9998 21.7844C11.9721 21.7844 11.7177 21.7754 10.9213 21.7386C10.1265 21.7017 9.58381 21.5739 9.10874 21.3865C8.61796 21.193 8.20137 20.9334 7.7865 20.5118C7.37132 20.0906 7.11621 19.6678 6.92534 19.1693C6.74085 18.6875 6.615 18.1367 6.57845 17.3299C6.54236 16.5216 6.53333 16.264 6.53333 14.2058C6.53333 12.1476 6.54267 11.8892 6.57829 11.0808C6.61407 10.2743 6.74007 9.72343 6.92518 9.2414C7.11652 8.74311 7.37163 8.32029 7.78697 7.89905C8.202 7.47765 8.61858 7.21871 9.10967 7.02514C9.58443 6.83773 10.127 6.71 10.9219 6.67306Z" fill="white"/>
<path fill-rule="evenodd" clip-rule="evenodd" d="M13.3309 7.99298C13.4609 7.99278 13.6008 7.99284 13.7518 7.99291L14.0007 7.99298C15.9943 7.99298 16.2306 8.00025 17.0179 8.03656C17.7459 8.07035 18.141 8.19382 18.4042 8.29755C18.7527 8.43491 19.0011 8.59911 19.2623 8.86436C19.5236 9.12961 19.6854 9.38223 19.821 9.7359C19.9232 10.0027 20.045 10.4038 20.0782 11.1427C20.1139 11.9416 20.1217 12.1816 20.1217 14.2041C20.1217 16.2266 20.1139 16.4666 20.0782 17.2655C20.0449 18.0044 19.9232 18.4055 19.821 18.6723C19.6857 19.026 19.5236 19.2778 19.2623 19.5429C19.0009 19.8081 18.7528 19.9723 18.4042 20.1097C18.1413 20.2139 17.7459 20.337 17.0179 20.3708C16.2308 20.4071 15.9943 20.415 14.0007 20.415C12.0069 20.415 11.7706 20.4071 10.9835 20.3708C10.2555 20.3367 9.86038 20.2133 9.59702 20.1095C9.24858 19.9722 8.99968 19.808 8.73835 19.5427C8.47701 19.2775 8.31523 19.0255 8.17959 18.6717C8.07739 18.4048 7.95558 18.0038 7.92245 17.2649C7.88667 16.466 7.87952 16.226 7.87952 14.2022C7.87952 12.1784 7.88667 11.9397 7.92245 11.1408C7.95574 10.4019 8.07739 10.0008 8.17959 9.73369C8.31492 9.38002 8.47701 9.1274 8.73835 8.86215C8.99968 8.5969 9.24858 8.4327 9.59702 8.29502C9.86023 8.19082 10.2555 8.06766 10.9835 8.03372C11.6723 8.00214 11.9392 7.99267 13.3309 7.99109V7.99298ZM17.9864 9.25134C17.4917 9.25134 17.0904 9.65821 17.0904 10.1605C17.0904 10.6625 17.4917 11.0699 17.9864 11.0699C18.481 11.0699 18.8824 10.6625 18.8824 10.1605C18.8824 9.65837 18.481 9.25102 17.9864 9.25102V9.25134ZM10.1662 14.2058C10.1662 12.0566 11.883 10.314 14.0005 10.3139C16.1181 10.3139 17.8346 12.0565 17.8346 14.2058C17.8346 16.3551 16.1183 18.0969 14.0007 18.0969C11.8831 18.0969 10.1662 16.3551 10.1662 14.2058Z" fill="white"/>
<path d="M14.0007 11.6796C15.3752 11.6796 16.4896 12.8106 16.4896 14.2058C16.4896 15.6009 15.3752 16.732 14.0007 16.732C12.626 16.732 11.5118 15.6009 11.5118 14.2058C11.5118 12.8106 12.626 11.6796 14.0007 11.6796V11.6796Z" fill="white"/>
</svg>
