<svg width="28" height="29" viewBox="0 0 28 29" fill="none" xmlns="http://www.w3.org/2000/svg">
<path fill-rule="evenodd" clip-rule="evenodd" d="M14 -0.00390625C6.26801 -0.00390625 0 6.35798 0 14.2058C0 22.0535 6.26801 28.4154 14 28.4154C21.732 28.4154 28 22.0535 28 14.2058C28 6.35798 21.732 -0.00390625 14 -0.00390625ZM6.72094 11.7652H9.89365V21.4406H6.72094V11.7652ZM10.1026 8.77216C10.082 7.82349 9.41363 7.10092 8.32827 7.10092C7.24291 7.10092 6.53333 7.82349 6.53333 8.77216C6.53333 9.70118 7.22193 10.4445 8.28708 10.4445H8.30736C9.41363 10.4445 10.1026 9.70118 10.1026 8.77216ZM17.6827 11.538C19.7705 11.538 21.3356 12.9211 21.3356 15.893L21.3355 21.4406H18.1629V16.2642C18.1629 14.964 17.7038 14.0768 16.5553 14.0768C15.6788 14.0768 15.1567 14.6749 14.9274 15.2526C14.8435 15.4597 14.8229 15.7481 14.8229 16.0373V21.4408H11.6498C11.6498 21.4408 11.6916 12.6733 11.6498 11.7654H14.8229V13.1359C15.244 12.4771 15.9982 11.538 17.6827 11.538Z" fill="white"/>
</svg>
