<svg width="28" height="29" viewBox="0 0 28 29" fill="none" xmlns="http://www.w3.org/2000/svg">
<path d="M10.8836 8.42007H8.83231L17.1171 19.9914H19.1677L10.8836 8.42007ZM10.8836 8.42007H8.83231L17.1171 19.9914H19.1677L10.8836 8.42007ZM23.8995 4.30621C21.3663 1.77293 17.8662 0.20575 14.0004 0.20575C10.1345 0.20575 6.63375 1.77293 4.10047 4.30621C1.56718 6.8402 0 10.3396 0 14.2061C0 18.0726 1.56718 21.572 4.10047 24.1053C6.63375 26.6386 10.1345 28.2057 14.0004 28.2057C21.732 28.2057 28 21.9377 28 14.2061C28 10.3396 26.4328 6.8402 23.8995 4.30621ZM16.3159 21.5495L12.689 16.4829L7.95218 21.5495H5.80154L11.756 15.18L5.80154 6.86205H11.6841L15.0877 11.6171L19.5334 6.86205H21.6841L16.0206 12.9194L22.1985 21.5495H16.3159ZM8.83231 8.42007L17.1171 19.9914H19.1677L10.8836 8.42007H8.83231ZM10.8836 8.42007H8.83231L17.1171 19.9914H19.1677L10.8836 8.42007ZM10.8836 8.42007H8.83231L17.1171 19.9914H19.1677L10.8836 8.42007Z" fill="white"/>
</svg>
